#!OML:ASF X:\für Bonn\!DataBase\2005_08_11_Bastian_Final\c3d\Bastian.ASF
:FULLY-SPECIFIED
:DEGREES
232
root 21.7438 15.4565 -5.82578 554.802 -136.03 -155.19
lowerback 69.2792 -1.91494 13.887
upperback 16.1582 5.78417 3.53094
thorax -1.91689 2.7094 -3.75289
lowerneck -5.43327 -11.2105 4.00589
upperneck -29.1748 -12.9487 14.5553
head -7.4356 -8.65718 4.8144
rclavicle 4.13472e-014 -4.13472e-014
rhumerus 64.8509 -9.722 -33.3627
rradius 20.993
rwrist -24.2014
rhand -43.2112 -21.6503
rfingers 7.12502
rthumb -16.0617 -51.0046
lclavicle 4.13472e-014 -4.13472e-014
lhumerus -11.5396 -33.3268 94.8897
lradius 49.498
lwrist 29.9987
lhand -10.4414 -15.7654
lfingers 7.12502
lthumb 15.5586 13.6288
rfemur -87.6115 -33.787 30.836
rtibia 76.9274
rfoot -24.2367 -5.11292
rtoes 12.0494
lfemur -74.0183 -16.2987 -33.7471
ltibia 54.2589
lfoot -1.97312 -20.9115
ltoes -14.9183
233
root 21.7361 15.4516 -5.83493 555.02 -136.258 -155.254
lowerback 69.2787 -2.16684 14.0873
upperback 16.0881 5.65151 3.35266
thorax -1.95469 2.68214 -3.97625
lowerneck -5.43389 -11.2569 3.85169
upperneck -29.1739 -12.9305 14.8988
head -7.39302 -8.66405 4.94356
rclavicle 6.67916e-014 3.18055e-014
rhumerus 64.9857 -9.84568 -33.9849
rradius 20.8474
rwrist -23.7746
rhand -43.6164 -21.216
rfingers 7.12502
rthumb -16.4519 -50.5384
lclavicle 6.67916e-014 3.18055e-014
lhumerus -11.6534 -33.2631 94.7815
lradius 49.3833
lwrist 29.8255
lhand -10.3071 -15.8281
lfingers 7.12502
lthumb 15.6879 13.5559
rfemur -87.7709 -33.7886 30.928
rtibia 76.9849
rfoot -24.3179 -5.25415
rtoes 12.1619
lfemur -74.1824 -16.3991 -33.6781
ltibia 54.2688
lfoot -1.92864 -21.0664
ltoes -14.9723
234
root 21.7296 15.4498 -5.84414 555.187 -136.471 -155.327
lowerback 69.331 -2.42029 14.2545
upperback 16.0118 5.5045 3.17681
thorax -2.00384 2.64432 -4.17686
lowerneck -5.43903 -11.2864 3.68499
upperneck -29.1573 -12.8969 15.2217
head -7.34553 -8.65907 5.06588
rclavicle 3.18055e-015 5.725e-014
rhumerus 65.1603 -9.93427 -34.7444
rradius 20.7361
rwrist -23.1748
rhand -44.0458 -20.8614
rfingers 7.12502
rthumb -16.8653 -50.149
lclavicle 3.18055e-015 5.725e-014
lhumerus -11.7811 -33.1843 94.6719
lradius 49.2726
lwrist 29.7358
lhand -10.2225 -15.8925
lfingers 7.12502
lthumb 15.7694 13.4851
rfemur -87.8404 -33.7989 30.9906
rtibia 77.0278
rfoot -24.4043 -5.38239
rtoes 12.2594
lfemur -74.2891 -16.502 -33.5933
ltibia 54.2772
lfoot -1.88371 -21.1618
ltoes -14.9568
235
root 21.7234 15.4477 -5.85203 555.388 -136.682 -155.44
lowerback 69.3324 -2.68108 14.4557
upperback 15.9617 5.35768 3.00094
thorax -2.02153 2.61102 -4.39162
lowerneck -5.42292 -11.3142 3.48679
upperneck -29.1963 -12.8471 15.5809
head -7.31565 -8.65085 5.21052
rclavicle -3.18055e-014 -2.54444e-014
rhumerus 65.3604 -10.0201 -35.5668
rradius 20.5867
rwrist -22.5197
rhand -44.4669 -20.5188
rfingers 7.12502
rthumb -17.2706 -49.7714
lclavicle -3.18055e-014 -2.54444e-014
lhumerus -11.918 -33.0921 94.5492
lradius 49.2313
lwrist 29.6171
lhand -10.1454 -15.9406
lfingers 7.12502
lthumb 15.8436 13.4311
rfemur -87.9194 -33.8024 31.086
rtibia 77.0606
rfoot -24.4727 -5.51439
rtoes 12.352
lfemur -74.4004 -16.5918 -33.4721
ltibia 54.2743
lfoot -1.80228 -21.2845
ltoes -14.7921
236
root 21.7187 15.4447 -5.86035 555.514 -136.86 -155.502
lowerback 69.3092 -2.91337 14.6085
upperback 15.9747 5.19542 2.83375
thorax -1.97842 2.57477 -4.57275
lowerneck -5.51256 -11.3309 3.25285
upperneck -29.2025 -12.7941 15.9443
head -7.25304 -8.63487 5.35087
rclavicle -3.81667e-014 2.22639e-014
rhumerus 65.617 -10.1514 -36.5249
rradius 20.4521
rwrist -21.6506
rhand -44.8824 -20.1704
rfingers 7.12502
rthumb -17.6705 -49.3874
lclavicle -3.81667e-014 2.22639e-014
lhumerus -11.9257 -32.9512 94.382
lradius 49.1335
lwrist 29.5229
lhand -10.0654 -16.0522
lfingers 7.12502
lthumb 15.9207 13.3135
rfemur -87.9779 -33.8114 31.1441
rtibia 77.094
rfoot -24.527 -5.65206
rtoes 12.3825
lfemur -74.4773 -16.6834 -33.3934
ltibia 54.2729
lfoot -1.78057 -21.3678
ltoes -14.9144
237
root 21.7143 15.4441 -5.86751 555.595 -136.991 -155.529
lowerback 69.2982 -3.09459 14.684
upperback 15.9887 5.04078 2.68827
thorax -1.94834 2.53415 -4.70429
lowerneck -5.5256 -11.3247 3.01034
upperneck -29.2839 -12.7031 16.2841
head -7.23294 -8.60365 5.49741
rclavicle -1.27222e-014 -1.27222e-014
rhumerus 65.8812 -10.2188 -37.4159
rradius 20.3316
rwrist -20.8309
rhand -45.2714 -19.8288
rfingers 7.12502
rthumb -18.0448 -49.0117
lclavicle -1.27222e-014 -1.27222e-014
lhumerus -12.0114 -32.7691 94.267
lradius 49.1213
lwrist 29.4302
lhand -10.0689 -16.1189
lfingers 7.12502
lthumb 15.9173 13.247
rfemur -88.0117 -33.8087 31.1605
rtibia 77.1125
rfoot -24.5658 -5.76379
rtoes 12.4222
lfemur -74.5199 -16.7409 -33.3583
ltibia 54.2585
lfoot -1.76989 -21.4448
ltoes -15.0405
238
root 21.7098 15.4442 -5.87464 555.697 -137.136 -155.605
lowerback 69.2747 -3.28113 14.7772
upperback 16.0068 4.88927 2.55025
thorax -1.91273 2.49473 -4.83562
lowerneck -5.56478 -11.3131 2.72086
upperneck -29.3447 -12.6028 16.65
head -7.1955 -8.56347 5.65537
rclavicle -4.77083e-014 3.18055e-015
rhumerus 66.1436 -10.2387 -38.3123
rradius 20.1786
rwrist -19.9017
rhand -45.669 -19.5138
rfingers 7.12502
rthumb -18.4273 -48.661
lclavicle -4.77083e-014 3.18055e-015
lhumerus -12.053 -32.5288 94.1481
lradius 49.0458
lwrist 29.31
lhand -10.0195 -16.2361
lfingers 7.12502
lthumb 15.9649 13.126
rfemur -88.0148 -33.8213 31.2153
rtibia 77.1196
rfoot -24.6147 -5.84162
rtoes 12.4972
lfemur -74.5585 -16.7851 -33.2902
ltibia 54.243
lfoot -1.71153 -21.5381
ltoes -14.9861
239
root 21.7057 15.4446 -5.88229 555.737 -137.258 -155.625
lowerback 69.2625 -3.43641 14.8038
upperback 16.043 4.72927 2.42754
thorax -1.86861 2.44812 -4.92155
lowerneck -5.69936 -11.3051 2.40377
upperneck -29.3501 -12.5188 17.0292
head -7.11824 -8.52494 5.81003
rclavicle -2.22639e-014 -4.13472e-014
rhumerus 66.4064 -10.1771 -38.9364
rradius 20.039
rwrist -19.284
rhand -46.0116 -19.247
rfingers 7.12502
rthumb -18.7568 -48.3627
lclavicle -2.22639e-014 -4.13472e-014
lhumerus -11.9988 -32.2423 94.032
lradius 48.9302
lwrist 29.1918
lhand -9.99414 -16.3329
lfingers 7.12502
lthumb 15.9893 13.0272
rfemur -88.009 -33.835 31.2304
rtibia 77.1169
rfoot -24.6443 -5.93583
rtoes 12.5215
lfemur -74.5557 -16.8338 -33.2554
ltibia 54.2128
lfoot -1.69253 -21.604
ltoes -15.0651
